<svg version="1.2" xmlns="http://www.w3.org/2000/svg" viewBox="0 0 1920 612" width="1920" height="612">
	<title>logo ñamcol largo white</title>
	<style>
		.s0 { fill: #ffffff;stroke: #000000;paint-order:stroke fill markers;stroke-linejoin: round;stroke-width: 10 } 
		.s1 { paint-order:stroke fill markers;stroke: #000000;stroke-width: 10;stroke-linejoin: round;;fill: #ffffff } 
	</style>
	<path id="N" class="s0" d="m326 115.6q10.2 0 14.4 4.5 4.4 4.2 4.4 14.3v322.5q0 9.8-7.4 14.9-7.5 4.8-25.4 4.8-13.1 0-20-3.9-6.6-3.9-12.5-12.6l-146-213.1h-1.2v204.2q0 10.1-4.5 14.6-4.2 4.2-14.3 4.2h-32.9q-10.1 0-14.6-4.2-4.2-4.5-4.2-14.6v-316.8q0-10.1 4.2-14.3 4.5-4.5 14.6-4.5h40q11.4 0 16.1 7.2l136.5 199.1h1.2v-187.5q0-10.1 4.2-14.3 4.4-4.5 14.6-4.5z"/>
	<path id="~" class="s0" d="m140 8.1q17.8 0 33.2 6.5 15.7 6.4 35.3 18.7 17.9 10.5 28.9 15.4 11.1 4.9 23.1 4.9 26.1 0 47.6-25.8 4.9-5.9 11.7-5.9 6.8 0 13.2 5.3 9.9 7.3 9.9 15.9 0 4.3-2.2 7.7-14.4 23.4-35.3 37.5-20.9 13.8-44.9 13.8-17.8 0-33.2-6.4-15.4-6.5-35.7-18.8-17.2-10.1-28.5-15-11.4-5.2-23.1-5.2-26.1 0-47.6 25.8-5 5.8-11.7 5.8-6.8 0-13.2-5.2-9.9-7.4-9.9-16 0-4.3 2.2-7.7 14.4-23.3 35.3-37.2 20.9-14.1 44.9-14.1z"/>
	<path id=")" class="s0" d="m347.7 512.9q-12.8 22.6-32.1 41.3-19.3 18.9-46.5 30.6-27.1 11.7-60.4 11.7-33.3 0.1-60.4-11.6-27.2-11.7-46.5-30.5-19.4-18.7-32.2-41.3-1.3-2.2-1.3-4.5 0-3.7 2.9-7.8 3.1-3.9 8.1-7.2 8.8-5.8 15.4-5.8 4.4 0 6.4 2.9 20.3 32.5 46.5 49 26.3 16.6 61.1 16.5 34.7 0 60.9-16.6 26.3-16.6 46.6-49.1 1.9-2.9 6.3-2.9 6.7 0 15.5 5.8 5 3.3 7.9 7.2 3.1 4 3.1 7.8 0 2.2-1.3 4.5z"/>
	<path id="amCol" class="s0" d="m383.8 343.3c0 77.3 50 128.7 112.6 128.7 39.3 0 67.5-18.8 82.3-40.2v36.2h63v-247.7h-63v35.4c-14.8-20.6-42.1-39.4-81.8-39.4-63.1 0-113.1 49.6-113.1 127zm194.9 0.9c0 46.9-31.3 72.8-65.8 72.8-33.5 0-65.2-26.8-65.2-73.7 0-47 31.7-72 65.2-72 34.5 0 65.8 25.9 65.8 72.9zm471.6 123.8h62.6v-145.3c0-68.4-42-105.9-101.5-105.9-36.2 0-68.8 19.2-84.9 47.3-17-30.8-48.8-47.3-87.2-47.3-30.8 0-57.2 12.9-72.9 33.5v-30h-62.6v247.7h62.6v-136.8c0-39.3 21.9-59.9 55.9-59.9 33.1 0 55 20.6 55 59.9v136.8h62.6v-136.8c0-39.3 21.9-59.9 55.4-59.9 33.1 0 55 20.6 55 59.9zm106.3-156.5c0 93.5 68.4 159.2 158.3 159.2 69.3 0 125.6-36.7 146.6-101h-71.9c-14.8 30.4-41.6 45.1-75.1 45.1-54.6 0-93.5-40.2-93.5-103.3 0-63.4 38.9-103.2 93.5-103.2 33.5 0 60.3 14.7 75.1 44.7h71.9c-21-63.9-77.3-101.1-146.6-101.1-89.9 0-158.3 66.2-158.3 159.6zm597.4 32.7c0-78.3-55.9-127.9-127.4-127.9-71.5 0-127.4 49.6-127.4 127.9 0 77.8 54.1 127.8 125.6 127.8 72 0 129.2-50 129.2-127.8zm-191.3 0c0-49.6 29.9-73.3 63-73.3 33.1 0 63.9 23.7 63.9 73.3 0 49.2-31.7 73.3-64.8 73.3-33.5 0-62.1-24.1-62.1-73.3zm238.1 123.8h62.6v-330.8h-62.6z"/>
	<path id="Frontend" class="s1" aria-label="Frontend"  d="m1140.9 604h27.2v-45.2h34v-21.1h-34v-23.6h45.4v-21.7h-72.6zm114.2-41.2c0-15.3 7.4-19.7 20.3-19.7h7.5v-28.8c-11.9 0-21.6 6.3-27.8 15.7v-14.8h-27.2v88.8h27.2zm127.6-3.2c0-28.2-20-45.7-46.1-45.7-26 0-46.1 17.5-46.1 45.7 0 28.1 19.7 45.6 45.8 45.6 26 0 46.4-17.5 46.4-45.6zm-64.6 0c0-15.1 8.6-22.1 18.5-22.1 9.5 0 18.4 7 18.4 22.1 0 14.9-9 22.1-18.7 22.1-9.9 0-18.2-7.2-18.2-22.1zm141 44.3h27v-51.8c0-23.8-13.7-37.8-34.2-37.8-11.9 0-21.4 5.2-26.8 12.7v-11.8h-27.2v88.7h27.2v-48.1c0-12.1 6.6-18.8 17-18.8 10.3 0 17 6.7 17 18.8zm50.1-30.9c0 23.1 12.8 30.9 31.3 30.9h13.8v-23.1h-9.7c-6 0-8.3-2.2-8.3-7.5v-35.6h17.9v-22.6h-17.9v-21.6h-27.1v21.6h-10.9v22.6h10.9zm98.8-37.4c9 0 16.7 5.6 16.7 15.3h-34.1c1.6-9.9 8.5-15.3 17.4-15.3zm42.4 38.8h-28.9c-2.2 4.8-6.5 8.6-14.2 8.6-8.7 0-15.9-5.4-16.8-17h61.5c0.4-2.7 0.5-5.4 0.5-7.9 0-27.1-18.3-44.3-44.2-44.3-26.4 0-44.8 17.5-44.8 45.7 0 28.1 18.7 45.6 44.8 45.6 22.1 0 37.8-13.3 42.1-30.7zm77.7 29.5h27v-51.9c0-23.8-13.7-37.8-34.2-37.8-11.9 0-21.4 5.2-26.8 12.7v-11.8h-27.2v88.8h27.2v-48.2c0-12.1 6.6-18.8 17-18.8 10.3 0 17 6.7 17 18.8zm41.4-44.6c0 28 17.3 45.8 39.1 45.8 13 0 22.4-5.8 27.3-14v12.8h27.2v-117.7h-27.2v41.2c-5.4-8.1-15.6-13.5-27.3-13.5-21.8 0-39.1 17.5-39.1 45.4zm66.4 0.2c0 14.2-9 21.9-19.4 21.9-10.2 0-19.4-7.9-19.4-22.1 0-14.1 9.2-21.7 19.4-21.7 10.4 0 19.4 7.7 19.4 21.9z"/>
</svg>