<svg version="1.2" xmlns="http://www.w3.org/2000/svg" viewBox="0 0 1440 67" width="1440" height="67">
	<title>Waves</title>
	<style>
		.s0 { fill: #ffc042 } 
	</style>
	<path class="s0" d="m0 6.7l30 6.9c30 7.1 90 20.9 150 33.4 60 12.6 120 23.5 180 18.3 60-5.3 120-26.9 180-33.4 60-6.5 120 2.2 180-1.7 60-3.8 120-20.2 180-16.7 60 3.3 120 26.3 180 28.9 60 2.8 120-15.1 180-15.5 60-0.5 120 16.2 150 24.7l30 8.4v-108h-30c-30 0-90 0-150 0q-90 0-180 0-90 0-180 0-90 0-180 0-90 0-180 0-90 0-180 0-90 0-180 0c-60 0-120 0-150 0h-30z"/>
</svg>