<svg width="1440" height="115" viewBox="0 0 1440 115" fill="none" xmlns="http://www.w3.org/2000/svg">
<path d="M0 54.7118L30 61.6228C60 68.6777 120 82.4997 180 95.0258C240 107.552 300 118.494 360 113.311C420 107.984 480 86.3871 540 79.9081C600 73.429 660 82.0677 720 78.1803C780 74.4369 840 58.0233 900 61.4788C960 64.7903 1020 87.8269 1080 90.4185C1140 93.1541 1200 75.3008 1260 74.8688C1320 74.4369 1380 91.1384 1410 99.6331L1440 107.984V0H1410C1380 0 1320 0 1260 0C1200 0 1140 0 1080 0C1020 0 960 0 900 0C840 0 780 0 720 0C660 0 600 0 540 0C480 0 420 0 360 0C300 0 240 0 180 0C120 0 60 0 30 0H0V54.7118Z" fill="#FFC042"/>
</svg>
